<?xml version="1.0" encoding="UTF-8" standalone="no"?>
<!-- Generator: Adobe Illustrator 25.2.1, SVG Export Plug-In . SVG Version: 6.00 Build 0)  -->

<svg
        xmlns:dc="http://purl.org/dc/elements/1.1/"
        xmlns:cc="http://creativecommons.org/ns#"
        xmlns:rdf="http://www.w3.org/1999/02/22-rdf-syntax-ns#"
        xmlns:svg="http://www.w3.org/2000/svg"
        xmlns="http://www.w3.org/2000/svg"
        xmlns:sodipodi="http://sodipodi.sourceforge.net/DTD/sodipodi-0.dtd"
        xmlns:inkscape="http://www.inkscape.org/namespaces/inkscape"
        version="1.1"
        id="레이어_1"
        x="0px"
        y="0px"
        width="396"
        height="113"
        style="enable-background:new 0 0 396.9 113.4;"
        xml:space="preserve"
        sodipodi:docname="logo.svg"
        inkscape:version="0.92.4 (5da689c313, 2019-01-14)"><metadata
   id="metadata29"><rdf:RDF><cc:Work
       rdf:about=""><dc:format>image/svg+xml</dc:format><dc:type
        rdf:resource="http://purl.org/dc/dcmitype/StillImage"/></cc:Work></rdf:RDF></metadata>
    <defs
            id="defs27"/>
    <sodipodi:namedview
            pagecolor="#ffffff"
            bordercolor="#666666"
            borderopacity="1"
            objecttolerance="10"
            gridtolerance="10"
            guidetolerance="10"
            inkscape:pageopacity="0"
            inkscape:pageshadow="2"
            inkscape:window-width="640"
            inkscape:window-height="480"
            id="namedview25"
            showgrid="false"
            inkscape:zoom="0.86419754"
            inkscape:cx="198.45"
            inkscape:cy="56.700001"
            inkscape:window-x="142"
            inkscape:window-y="138"
            inkscape:window-maximized="0"
            inkscape:current-layer="레이어_1"/>
    <g
            id="g22"
            style="fill:#ffffff">
	<g
            id="g8"
            style="fill:#ffffff">
		<path
                d="M379.3,109.7l-10-33.4l-10,33.5l-11.8,0l15.9-53.1L347.5,3.5h11.7l10,33.4l10-33.4H391l-15.9,53.1l15.9,53.1H379.3z"
                id="path2"
                style="fill:#ffffff"/>
        <path
                d="M225.2,3.5h-16.6h-15.1v95.4v10.8h5.8h6v-6V87.1v-3.7h3.7h16.6L236.9,72V55.3V31.9V15.3L225.2,3.5z M220.3,72h-15.1V15.3    h15.1l4.9,4.9v47L220.3,72z"
                id="path4"
                style="fill:#ffffff"/>
        <polygon
                points="318.1,3.5 298.1,3.5 298.1,3.5 298.1,3.5 292.2,9.4 286.3,3.5 275.3,3.5 266.3,3.5 254.6,3.5 254.6,47.1     254.6,109.7 266.3,109.7 266.3,35.3 266.3,15.3 286.3,15.3 286.3,15.3 286.3,109.7 298.1,109.7 298.1,15.3 298.1,15.3 298.1,15.3     318.1,15.3 318.1,35.3 318.1,109.7 329.9,109.7 329.9,47.1 329.9,15.3   "
                id="polygon6"
                style="fill:#ffffff"/>
	</g>
        <g
                id="g20"
                style="fill:#ffffff">
		<g
                id="g12"
                style="fill:#ffffff">
			<path
                    d="M34.5,46.5H16.9c-1.2,0-2.1,1-2.1,2.1v29V83v18.6c0,0.6-0.5,1.2-1.2,1.2H6.8c-0.6,0-1.2-0.5-1.2-1.2V46.5v-6.4V40     c0-1.5,1.2-2.6,2.6-2.6h0.8h19.4h3.4h2.6c1.7,0,3.2-0.6,4.6-1.4c1.1-0.7,2.3-1,3.6-1c4.4,0,7.9,4.1,6.8,8.7     c-0.6,2.5-2.6,4.6-5.1,5.2c-2,0.5-3.8,0.1-5.3-0.8C37.7,47,36.2,46.5,34.5,46.5z M75.9,18.5c-6.2-5.3-15.1-8-26.5-8H7     c-0.7,0-1.3,0.6-1.3,1.3v5.5c0,0.7,0.6,1.3,1.3,1.3h42c8.9,0,15.7,1.9,20.4,5.8c4.7,3.9,7.1,9.5,7.1,16.9     c0,7.6-2.4,13.3-7.2,17.3c-4.8,4-11.6,6-20.4,6H25.9c-0.8,0-1.5,0.7-1.5,1.5v5.2c0,0.8,0.7,1.5,1.5,1.5h23.5     c11.4,0,20.3-2.8,26.5-8.3c6.2-5.5,9.4-13.4,9.4-23.5C85.3,31.3,82.2,23.8,75.9,18.5z"
                    id="path10"
                    style="fill:#ffffff"/>
		</g>
            <g
                    id="g18"
                    style="fill:#ffffff">
			<path
                    d="M165.2,46.3C165.2,46.3,165.2,46.3,165.2,46.3c0-1.2-0.1-2.3-0.2-3.5c0-0.2,0-0.4-0.1-0.7c-0.1-1.2-0.3-2.3-0.5-3.4     c0,0,0,0,0,0c-1.9-9.6-7.5-18-15.8-23.5c0,0-0.1-0.1-0.1-0.1c-0.4-0.3-0.8-0.5-1.2-0.8l-0.5-0.3l-0.1,0     c-5.6-3.3-12.2-5.3-19.2-5.3c-6.5,0-12.6,1.6-17.9,4.5l0,0l-0.5,0.3c-0.9,0.5-1.7,1.1-2.5,1.6c-0.1,0.1-0.3,0.2-0.4,0.3     C98,21,92.7,29.3,90.8,38.5c0,0.1-0.1,0.2-0.1,0.4c-0.2,1-0.3,2-0.5,3c0,0.3-0.1,0.5-0.1,0.8c-0.1,0.9-0.1,1.9-0.1,2.8     c0,0.3,0,0.5,0,0.8c0,0.1,0,0.1,0,0.2c0,1.2,0.1,2.5,0.2,3.7c0,0,0,0.1,0,0.1c0.3,3.4,1.1,6.7,2.3,10.1     c2.3,6.3,6.4,11.7,11.7,15.8l-4.5,14.6c-0.1,0.3-0.1,0.7-0.1,1.1c0,0.1,0,0.3,0,0.4v7.5c0,2.7,2.2,4.8,4.8,4.8h46.4     c2.7,0,4.8-2.2,4.8-4.8v-7.5c0-0.1,0-0.3,0-0.4c0.1-0.4,0-0.7-0.1-1.1l-4.6-14.9c0.4-0.3,0.8-0.6,1.2-1c0.5-0.5,1-0.9,1.5-1.4     c0.5-0.5,1-1,1.5-1.5c0.4-0.5,0.9-0.9,1.3-1.4c0.6-0.7,1.2-1.5,1.7-2.2c0.2-0.3,0.5-0.6,0.7-1c0.8-1.1,1.4-2.3,2.1-3.5     c0.2-0.3,0.3-0.7,0.5-1c0.5-0.9,0.9-1.9,1.3-2.8c0.2-0.4,0.3-0.8,0.4-1.2c0.3-0.9,0.6-1.9,0.9-2.8c0.1-0.4,0.2-0.8,0.3-1.2     c0.2-1,0.4-2,0.6-3c0.1-0.4,0.1-0.8,0.2-1.2C165.1,49.2,165.2,47.8,165.2,46.3C165.2,46.3,165.2,46.3,165.2,46.3     C165.2,46.3,165.2,46.3,165.2,46.3C165.2,46.3,165.2,46.3,165.2,46.3z M146.9,78.5L146.9,78.5l2,6.6l-5.5-4.7l0,0l-1-0.9     l-0.8-0.7l-0.1-0.1l-3.5-3l-1.2-1l-0.8-0.7l-5.4-4.6l10.7-9.2l3.1,9.8l0.3,0.9l0.4,1.3l1.2,4l0,0.1l0.3,0.9L146.9,78.5z      M115.7,82.1L115.7,82.1l1.2-1l0.8-0.7l0.2-0.1l3.8-3.2l1.3-1.2l0.9-0.7l3.5-3l3.6,3.1l0.8,0.7l1.4,1.2l3.8,3.3l0.1,0.1l0.9,0.7     l1.1,1l0,0l6.2,5.3h-35.9L115.7,82.1z M144.6,55.7c-0.3-1-1.2-1.6-2.2-1.6h-29.6c-1,0-1.9,0.6-2.2,1.6L107,67.1     c-2.4-2.4-4.4-5.2-5.7-8.4c-5.2-12.1-2.7-24.4,6.8-33.8l19.5,8.9l20-8.4c4.2,4.5,9,11.7,9,21c0,7.7-3.1,15.1-8.5,20.5L144.6,55.7     z M136.9,58.6l-9.5,8.2l-9.6-8.2H136.9z M108.3,78.5l0.4-1.2l0.2-0.6l0.1-0.4l1.2-3.7l0.4-1.3l0.3-0.9l3.1-9.8l10.5,8.9L119,74     l-0.8,0.7l-1.2,1l-3.4,2.9l-0.3,0.2l-0.6,0.5l-1,0.9l-0.2,0.2l-5.3,4.5l1.9-6.2L108.3,78.5z M104.1,93.7H151v6     c0,0.1-0.1,0.3-0.2,0.3h-46.4c-0.1,0-0.3-0.1-0.3-0.3V93.7z M127.6,11c6,0,11.6,1.5,16.5,4.1l-16.5,7.2l-15.3-7.7     C116.9,12.3,122.1,11,127.6,11z"
                    id="path14"
                    style="fill:#ffffff"/>
                <path
                        d="M132.9,16.2c0-2.6-2.1-4.8-4.8-4.8s-4.8,2.1-4.8,4.8c0,2.6,2.1,4.8,4.8,4.8S132.9,18.8,132.9,16.2z M125.7,16.2     c0-1.3,1.1-2.4,2.4-2.4c1.3,0,2.4,1.1,2.4,2.4c0,1.3-1.1,2.4-2.4,2.4C126.8,18.6,125.7,17.5,125.7,16.2z"
                        id="path16"
                        style="fill:#ffffff"/>
		</g>
	</g>
</g>
</svg>